<?xml version="1.0" standalone="no"?>
<!DOCTYPE svg PUBLIC "-//W3C//DTD SVG 20010904//EN"
 "http://www.w3.org/TR/2001/REC-SVG-20010904/DTD/svg10.dtd">
<svg version="1.0" xmlns="http://www.w3.org/2000/svg"
 width="500.000000pt" height="500.000000pt" viewBox="0 0 500.000000 500.000000"
 preserveAspectRatio="xMidYMid meet">

<g transform="translate(0.000000,500.000000) scale(0.100000,-0.100000)"
fill="#000000" stroke="none">
<path d="M0 2500 l0 -2500 2500 0 2500 0 0 2500 0 2500 -2500 0 -2500 0 0
-2500z m1454 569 c791 -415 722 -377 735 -406 18 -40 13 -89 -11 -117 -31 -34
-1358 -726 -1393 -726 -38 0 -60 15 -75 49 -17 42 -6 92 28 123 15 14 282 157
594 319 313 162 567 298 565 303 -2 5 -246 135 -542 290 -661 345 -621 322
-641 364 -29 62 9 142 69 142 10 0 312 -154 671 -341z m2902 -1602 c32 -37 32
-87 0 -124 l-24 -28 -812 0 -812 0 -24 28 c-41 48 -25 125 30 147 11 5 380 8
819 7 l799 -2 24 -28z"/>
</g>
</svg>
